<svg xmlns="http://www.w3.org/2000/svg" width="200.218" height="100" viewBox="0 0 200.218 100">
  <path id="Logo_ZI_blau_horizontal_RGB" d="M177.872,79.38c0,1.6.628,2.72,2.232,2.72a4.559,4.559,0,0,0,1.464-.279l-.279-1.255a2.507,2.507,0,0,1-.767.139c-.7,0-.976-.418-.976-1.325V75.823h1.813V74.428h-1.813V72.406h-1.395l-.209,2.022-1.116.07v1.325h1.046V79.38Zm-4.045,2.51H175.5V74.428h-1.674Zm.837-8.717a.979.979,0,1,0-1.046-.976.972.972,0,0,0,1.046.976m-7.043,4.393c.139-1.255.837-1.883,1.743-1.883.976,0,1.464.7,1.464,1.883Zm-1.674.628c0,2.441,1.534,3.905,3.556,3.905a4.289,4.289,0,0,0,2.441-.837l-.558-1.116a3.005,3.005,0,0,1-1.674.558,2.093,2.093,0,0,1-2.092-2.092h4.533a2.873,2.873,0,0,0,.07-.837c0-2.092-1.046-3.556-2.929-3.556a3.707,3.707,0,0,0-3.347,3.975m-7.6,3.766h1.674V76.73c.628-.628.976-.907,1.6-.907.767,0,1.116.488,1.116,1.674V81.96h1.674V77.287c0-1.883-.7-2.929-2.162-2.929a3.455,3.455,0,0,0-2.3,1.116l.07-1.464V71.221h-1.674V81.96Zm-6.834-3.766c0-1.534.767-2.441,1.674-2.441a1.956,1.956,0,0,1,1.464.628v3.487a2.021,2.021,0,0,1-1.464.837c-1.186-.07-1.674-.907-1.674-2.51m-1.743,0c0,2.441,1.116,3.905,2.929,3.905a2.943,2.943,0,0,0,2.022-.976h.07l.139.837h1.395V71.221H154.58v2.72l.07,1.185a2.634,2.634,0,0,0-1.883-.837c-1.6,0-3,1.464-3,3.905m-7.81,3.7h1.674V76.66c.628-.628.976-.907,1.6-.907.767,0,1.116.488,1.116,1.674V81.89h1.674V77.218c0-1.883-.7-2.929-2.162-2.929a3.542,3.542,0,0,0-2.371,1.185h-.07l-.139-.976h-1.395V81.89Zm-8.089-2.72c0,1.883.7,2.929,2.162,2.929a2.882,2.882,0,0,0,2.3-1.255h.07l.139,1.116h1.395V74.5h-1.674v5.091c-.558.7-.976,1.046-1.6,1.046-.767,0-1.116-.488-1.116-1.674V74.5h-1.674V79.17Zm-6.9,1.883a4.674,4.674,0,0,0,2.72,1.046c1.813,0,2.789-1.046,2.789-2.3,0-1.395-1.046-1.883-2.022-2.232-.767-.279-1.464-.558-1.464-1.116,0-.488.349-.837,1.046-.837a2.686,2.686,0,0,1,1.534.628l.767-1.046a3.648,3.648,0,0,0-2.371-.907c-1.6,0-2.58.907-2.58,2.232s1.046,1.813,2.022,2.162c.767.279,1.534.558,1.534,1.185,0,.488-.349.907-1.116.907a3.242,3.242,0,0,1-1.953-.837l-.907,1.116Zm-5.439-3.487c.139-1.255.837-1.883,1.743-1.883.976,0,1.464.7,1.464,1.883Zm-1.743.628c0,2.441,1.534,3.905,3.487,3.905a4.289,4.289,0,0,0,2.441-.837l-.558-1.116a3.005,3.005,0,0,1-1.674.558,2.093,2.093,0,0,1-2.092-2.092h4.533a2.873,2.873,0,0,0,.07-.837c0-2.092-1.046-3.556-2.929-3.556-1.674.07-3.278,1.534-3.278,3.975m-8.926-1.185c0,3.278,1.953,5.091,4.463,5.091a4.43,4.43,0,0,0,3.068-1.185V76.52H115.11v1.464h1.813v2.162a2.011,2.011,0,0,1-1.325.418c-1.883,0-2.929-1.395-2.929-3.626s1.116-3.626,2.789-3.626a2.4,2.4,0,0,1,1.883.837l.907-1.116a3.932,3.932,0,0,0-2.859-1.255c-2.58,0-4.533,1.953-4.533,5.23M184.775,56.3c.139-1.255.837-1.883,1.743-1.883.976,0,1.464.7,1.464,1.883Zm-1.6.628c0,2.441,1.534,3.905,3.487,3.905a4.289,4.289,0,0,0,2.441-.837l-.558-1.116a3.005,3.005,0,0,1-1.674.558,2.093,2.093,0,0,1-2.092-2.092h4.533a2.873,2.873,0,0,0,.07-.837c0-2.092-1.046-3.556-2.929-3.556-1.674.07-3.278,1.534-3.278,3.975m-7.6,3.7h1.674v-5.23c.628-.628.976-.907,1.6-.907.767,0,1.116.488,1.116,1.674v4.463h1.674V55.949c0-1.883-.7-2.929-2.162-2.929a3.455,3.455,0,0,0-2.3,1.116l.07-1.464V49.882H175.57V60.621Zm-7.252-3.7c0,2.51,1.464,3.905,3.417,3.905a3.575,3.575,0,0,0,2.371-.976l-.7-1.116a2.324,2.324,0,0,1-1.464.628c-1.116,0-1.883-.976-1.883-2.51s.767-2.51,1.953-2.51a1.719,1.719,0,0,1,1.185.558l.767-1.116a2.882,2.882,0,0,0-2.092-.837,3.684,3.684,0,0,0-3.556,3.975m-6.485,2.859a4.674,4.674,0,0,0,2.72,1.046c1.813,0,2.789-1.046,2.789-2.3,0-1.395-1.046-1.883-2.022-2.232-.767-.279-1.464-.558-1.464-1.116,0-.488.349-.837,1.046-.837a2.686,2.686,0,0,1,1.534.628l.767-1.046a3.648,3.648,0,0,0-2.371-.907c-1.6,0-2.58.907-2.58,2.232s1.046,1.813,2.022,2.162c.767.279,1.534.558,1.534,1.185,0,.488-.349.907-1.116.907a3.242,3.242,0,0,1-1.953-.837l-.907,1.116Zm-3.138.837h1.674V53.159h-1.674Zm.837-8.717a.979.979,0,1,0-1.046-.976,1.013,1.013,0,0,0,1.046.976m-4.742,6.834c0,1.255.418,2.092,1.6,2.092a2.732,2.732,0,0,0,.907-.139l-.209-1.325h-.279c-.139,0-.349-.139-.349-.558V49.951h-1.674v8.787Zm-6.206-2.51c.139-1.255.837-1.883,1.743-1.883.976,0,1.464.7,1.464,1.883Zm-1.6.7c0,2.441,1.534,3.905,3.487,3.905a4.289,4.289,0,0,0,2.441-.837l-.558-1.116a3.005,3.005,0,0,1-1.674.558,2.093,2.093,0,0,1-2.092-2.092h4.533a2.873,2.873,0,0,0,.07-.837c0-2.092-1.046-3.556-2.929-3.556-1.743.07-3.278,1.534-3.278,3.975m-5.788-.7c.139-1.255.837-1.883,1.743-1.883.976,0,1.464.7,1.464,1.883Zm-1.534.7c0,2.441,1.534,3.905,3.487,3.905a4.289,4.289,0,0,0,2.441-.837l-.558-1.116a3.005,3.005,0,0,1-1.674.558,2.093,2.093,0,0,1-2.092-2.092h4.533a2.873,2.873,0,0,0,.07-.837c0-2.092-1.046-3.556-2.929-3.556-1.743.07-3.278,1.534-3.278,3.975m-8.02,2.441a4.928,4.928,0,0,0,3.417,1.464c2.162,0,3.417-1.325,3.417-2.929a2.642,2.642,0,0,0-1.953-2.65l-1.255-.558c-.767-.349-1.534-.628-1.534-1.395,0-.7.558-1.185,1.464-1.185a3.287,3.287,0,0,1,2.092.837l.837-1.116a4.176,4.176,0,0,0-2.929-1.255,2.954,2.954,0,0,0-3.208,2.789,2.824,2.824,0,0,0,1.953,2.65l1.325.558c.837.349,1.464.628,1.464,1.464,0,.767-.628,1.255-1.674,1.255a3.943,3.943,0,0,1-2.51-1.116l-.907,1.185Zm-7.88,1.255h1.674V56.088c.418-1.116,1.116-1.534,1.674-1.534a2.966,2.966,0,0,1,.767.139l.279-1.534a1.392,1.392,0,0,0-.837-.139,2.424,2.424,0,0,0-2.022,1.534h-.07l-.139-1.325h-1.395l.07,7.392Zm-3.766-8.787a.909.909,0,1,0-.837-.907.865.865,0,0,0,.837.907m-2.65,0a.909.909,0,1,0-.837-.907.824.824,0,0,0,.837.907m-1.743,6c0,1.883.7,2.929,2.162,2.929a2.882,2.882,0,0,0,2.3-1.255h.07l.139,1.116h1.395V53.159h-1.6V58.25c-.558.7-.976,1.046-1.6,1.046-.767,0-1.116-.488-1.116-1.674V53.159h-1.674l-.07,4.672Zm-.349-7.81a3.405,3.405,0,0,0-1.325-.279c-1.674,0-2.371,1.116-2.371,2.65v.767l-.976.07v1.325h.976v6.067h1.674V54.554h1.395V53.159h-1.395v-.837c0-.837.349-1.255.907-1.255a1.406,1.406,0,0,1,.767.209l.349-1.255Zm81.66-13.18c0,1.6.628,2.72,2.232,2.72a4.559,4.559,0,0,0,1.464-.279l-.279-1.255a2.507,2.507,0,0,1-.767.139c-.7,0-.976-.418-.976-1.325V33.285H200.4V31.89h-1.813V29.868h-1.395l-.209,2.022-1.116.07v1.325h1.046v3.556Zm-8.368-.209c0,1.883.7,2.929,2.162,2.929a2.882,2.882,0,0,0,2.3-1.255h.07l.139,1.116h1.395V31.96h-1.674V37.05c-.558.7-.976,1.046-1.6,1.046-.767,0-1.116-.488-1.116-1.674V31.96h-1.674v4.672Zm-4.881.209c0,1.6.628,2.72,2.232,2.72a4.559,4.559,0,0,0,1.464-.279l-.279-1.255a2.507,2.507,0,0,1-.767.139c-.7,0-.976-.418-.976-1.325V33.285h1.813V31.89h-1.813V29.868h-1.395l-.209,2.022-1.116.07v1.325h1.046v3.556Zm-4.114,2.51h1.674V31.96h-1.674Zm.837-8.717a.979.979,0,1,0-1.046-.976,1.06,1.06,0,0,0,1.046.976m-5.858,6.206c0,1.6.628,2.72,2.232,2.72a4.558,4.558,0,0,0,1.464-.279l-.279-1.255a2.507,2.507,0,0,1-.767.139c-.7,0-.976-.418-.976-1.325V33.285h1.813V31.89H176.2V29.868H174.8l-.209,2.022-1.116.07v1.325h1.046v3.556Zm-7.183,1.674a4.674,4.674,0,0,0,2.72,1.046c1.813,0,2.789-1.046,2.789-2.3,0-1.395-1.046-1.883-2.022-2.232-.767-.279-1.464-.558-1.464-1.116,0-.488.349-.837,1.046-.837a2.686,2.686,0,0,1,1.534.628l.767-1.046a3.648,3.648,0,0,0-2.371-.907c-1.6,0-2.58.907-2.58,2.232s1.046,1.813,2.022,2.162c.767.279,1.534.558,1.534,1.185,0,.488-.349.907-1.116.907a3.242,3.242,0,0,1-1.953-.837l-.907,1.116Zm-7.462.837h1.674v-5.23c.628-.628.976-.907,1.6-.907.767,0,1.116.488,1.116,1.674v4.463h1.674V34.679c0-1.883-.7-2.929-2.162-2.929a3.542,3.542,0,0,0-2.371,1.185h-.07l-.139-.976H159.81v7.392Zm-3.7,0h1.674V31.89h-1.674Zm.767-8.717a.979.979,0,1,0-1.046-.976,1.013,1.013,0,0,0,1.046.976m-4.742,6.834c0,1.255.418,2.092,1.6,2.092a2.732,2.732,0,0,0,.907-.139L154.51,38.1h-.279c-.139,0-.349-.139-.349-.558V28.612h-1.674v8.856Zm-6.276-.279c0-.767.628-1.255,2.58-1.534v1.674a2.434,2.434,0,0,1-1.534.837.933.933,0,0,1-1.046-.976m-1.6.139a2,2,0,0,0,2.092,2.162,3.591,3.591,0,0,0,2.232-.976h.07l.139.837h1.395V34.958c0-2.092-.837-3.208-2.65-3.208a5.639,5.639,0,0,0-2.929.976l.628,1.185a3.723,3.723,0,0,1,2.022-.7c.976,0,1.255.7,1.325,1.464-3.068.209-4.324,1.046-4.324,2.65m-4.812,2.022h1.674V34.819c.418-1.116,1.116-1.534,1.674-1.534a2.966,2.966,0,0,1,.767.139l.279-1.534a1.392,1.392,0,0,0-.837-.139,2.424,2.424,0,0,0-2.022,1.534h-.07l-.139-1.325h-1.395v7.392h.07Zm-4.951-2.51c0,1.6.628,2.72,2.232,2.72a4.558,4.558,0,0,0,1.464-.279l-.279-1.255a2.507,2.507,0,0,1-.767.139c-.7,0-.976-.418-.976-1.325V33.285h1.813V31.89H136.24V29.868h-1.395l-.209,2.022-1.116.07v1.325h1.046v3.556Zm-8.368,2.51h1.674v-5.23c.628-.628.976-.907,1.6-.907.767,0,1.116.488,1.116,1.674v4.463h1.674V34.679c0-1.883-.7-2.929-2.162-2.929a3.542,3.542,0,0,0-2.371,1.185h-.07l-.139-.976h-1.395v7.392Zm-6.276-4.393c.139-1.255.837-1.883,1.743-1.883.976,0,1.464.7,1.464,1.883Zm-1.534.7c0,2.441,1.534,3.905,3.487,3.905a4.289,4.289,0,0,0,2.441-.837l-.558-1.116a3.005,3.005,0,0,1-1.674.558,2.093,2.093,0,0,1-2.092-2.092h4.533a2.874,2.874,0,0,0,.07-.837c0-2.092-1.046-3.556-2.929-3.556-1.743,0-3.278,1.534-3.278,3.975m-7.671,3.7h6.695V37.887h-4.6l4.6-7.392V29.449h-6.276v1.464h4.184l-4.6,7.392v1.046ZM88.681,3.647a11.533,11.533,0,0,1,0,16.248,11.437,11.437,0,0,1-19.526-8.089A11.548,11.548,0,0,1,80.591.3a11.338,11.338,0,0,1,8.089,3.347M1.651,46.883h30.4L3.813,79.031c-4.6,5.23-4.6,12.762.209,17.573a12.453,12.453,0,0,0,8.856,3.7H77.732a12.736,12.736,0,0,0,8.926-3.7,12.367,12.367,0,0,0,3.7-9.066V28.473H70.9V78.333a3.654,3.654,0,0,1-3.487,3.556H27.941L58.625,47.232a11.951,11.951,0,0,0,3.208-7.741,11.037,11.037,0,0,0-3.278-7.81,10.611,10.611,0,0,0-7.6-3.208H1.651Z" transform="translate(-0.387 -0.3)" fill="#003e65"/>
</svg>